<svg width="320" height="280" viewBox="0 0 320 280" fill="none" xmlns="http://www.w3.org/2000/svg">
<rect width="320" height="280" fill="transparent"/>
<path d="M179.03 62.5703C164.475 88.7471 161.349 119.295 164.296 141.395C168.957 141.526 175.346 133.292 181.24 124.452C187.133 115.612 201.67 106.638 215.127 106.771C200.583 109.427 190.817 118.558 187.133 128.135C183.45 137.712 175.936 149.431 167.001 152.446C170.671 162.742 177.969 173.883 190.817 181.913C172.015 189.573 143.119 181.871 142.087 141.395C138.239 133.462 130.408 128.135 121.882 128.504C113.356 128.872 104.968 126.766 101.678 115.612C108.138 120.137 110.465 120.56 120.095 120.032C125.252 119.749 135.155 118.454 142.903 125.925C143.334 122.452 143.617 120.487 144.405 117.085C144.815 112.575 137.775 105.273 128.198 100.878C118.621 96.483 102.462 90.9491 107.571 66.9904C111.892 84.6351 120.095 91.301 131.145 91.301C142.195 91.301 150.299 99.4045 150.299 99.4045C155.97 85.9734 164.506 74.645 179.03 62.5703Z" fill="#FFF7F3" stroke="#3A4E48" stroke-width="2" stroke-linejoin="round"/>
<path d="M149.562 180.367C131.144 163.497 112.865 163.52 99.467 174.547C112.926 173.292 119.924 174.547 134.091 189.281C152.508 208.434 180.502 207.737 191.553 199.594C205.55 189.281 212.553 185.271 227.65 181.914C219.645 182.02 207.76 178.329 193.763 184.861C182.712 190.017 166.375 193.186 149.562 180.367Z" fill="#5ABF87" stroke="#3A4E48" stroke-width="2" stroke-linejoin="round"/>
<path d="M136.116 59.1784C134.594 75.533 140.253 78.2428 148.354 78.4883L145.517 70.5826L151.372 76.3756C154.42 68.6777 151.43 61.0463 136.116 59.1784Z" fill="#C1E6B8" stroke="#3A4E48" stroke-width="2" stroke-linejoin="round"/>
<path d="M90.4407 45.9179C88.9182 62.2725 94.5779 64.9823 102.679 65.2278L99.8411 57.3221L105.696 63.1151C108.744 55.4172 105.754 47.7858 90.4407 45.9179Z" fill="#C1E6B8" stroke="#3A4E48" stroke-width="2" stroke-linejoin="round"/>
<path d="M79.7324 72.5511C87.9348 86.7817 94.1202 85.7252 100.875 81.2471L93.9929 76.4321L102.118 77.7798C100.161 69.7351 93.3126 65.2319 79.7324 72.5511Z" fill="#5ABF87" stroke="#3A4E48" stroke-width="2" stroke-linejoin="round"/>
<path d="M110.643 146.929C125.674 153.553 130.037 149.043 132.835 141.437L124.438 141.625L131.787 137.906C125.451 132.577 117.266 132.995 110.643 146.929Z" fill="#C1E6B8" stroke="#3A4E48" stroke-width="2" stroke-linejoin="round"/>
<path d="M72.3372 129.248C87.3674 135.872 91.7305 131.362 94.5292 123.756L86.1318 123.944L93.481 120.225C87.1451 114.896 78.9595 115.314 72.3372 129.248Z" fill="#5ABF87" stroke="#3A4E48" stroke-width="2" stroke-linejoin="round"/>
<path d="M78.3884 92.0113C77.9125 108.43 83.7336 110.773 91.8336 110.501L88.4973 102.792L94.7099 108.2C97.2607 100.323 93.7899 92.8983 78.3884 92.0113Z" fill="#C1E6B8" stroke="#3A4E48" stroke-width="2" stroke-linejoin="round"/>
<path d="M98.9014 101.966C107.036 116.236 113.227 115.208 120.003 110.763L113.143 105.915L121.262 107.301C119.343 99.2472 112.516 94.7115 98.9014 101.966Z" fill="#C1E6B8" stroke="#3A4E48" stroke-width="2" stroke-linejoin="round"/>
<path d="M121.881 57.4163C111.253 69.9399 114.335 75.406 120.83 80.2535L123.04 72.1499L124.513 80.2535C131.425 75.6961 133.353 67.7298 121.881 57.4163Z" fill="#C1E6B8" stroke="#3A4E48" stroke-width="2" stroke-linejoin="round"/>
<path d="M135.715 26.8951C128.264 41.5331 132.524 46.1406 139.962 49.3585L140.242 40.9637L143.546 48.5086C149.22 42.4793 149.258 34.2831 135.715 26.8951Z" fill="#5ABF87" stroke="#3A4E48" stroke-width="2" stroke-linejoin="round"/>
<path d="M189.489 77.8118C173.467 81.4255 172.641 87.6461 174.915 95.4251L181.554 90.2802L177.858 97.6404C186.121 98.1566 192.453 92.9516 189.489 77.8118Z" fill="#5ABF87" stroke="#3A4E48" stroke-width="2" stroke-linejoin="round"/>
<path d="M169.397 37.776C156.081 47.3916 157.765 53.4365 162.91 59.6978L166.996 52.3588L166.487 60.5795C174.289 57.8092 178.068 50.536 169.397 37.776Z" fill="#C1E6B8" stroke="#3A4E48" stroke-width="2" stroke-linejoin="round"/>
<path d="M204.521 82.6561C191.204 92.2718 192.888 98.3166 198.034 104.578L202.119 97.239L201.61 105.46C209.412 102.689 213.191 95.4161 204.521 82.6561Z" fill="#C1E6B8" stroke="#3A4E48" stroke-width="2" stroke-linejoin="round"/>
<path d="M190.473 32.7882C176.839 41.9492 178.318 48.0474 183.25 54.4787L187.581 47.2817L186.795 55.4805C194.686 52.9749 198.708 45.8334 190.473 32.7882Z" fill="#5ABF87" stroke="#3A4E48" stroke-width="2" stroke-linejoin="round"/>
<path d="M230.744 81.365C214.414 83.1333 212.887 89.2196 214.261 97.2068L221.443 92.8501L216.933 99.7423C225.084 101.195 231.966 96.7436 230.744 81.365Z" fill="#5ABF87" stroke="#3A4E48" stroke-width="2" stroke-linejoin="round"/>
<path d="M245.353 100.526C229.456 96.392 225.871 101.542 224.325 109.498L232.585 107.969L225.925 112.816C233.032 117.063 241.045 115.34 245.353 100.526Z" fill="#5ABF87" stroke="#3A4E48" stroke-width="2" stroke-linejoin="round"/>
<path d="M204.099 59.2711C188.202 55.1371 184.617 60.2871 183.072 68.2429L191.331 66.7142L184.671 71.5608C191.778 75.8078 199.791 74.0847 204.099 59.2711Z" fill="#C1E6B8" stroke="#3A4E48" stroke-width="2" stroke-linejoin="round"/>
<path d="M221.475 121.742C209.619 110.374 203.976 113.119 198.744 119.308L206.698 122.005L198.52 122.984C202.65 130.16 210.485 132.568 221.475 121.742Z" fill="#C1E6B8" stroke="#3A4E48" stroke-width="2" stroke-linejoin="round"/>
<path d="M83.144 223.704V247H79.4V237.112H67.944V247H64.2V223.704H67.944V233.528H79.4V223.704H83.144ZM88.8078 233.464H92.3918V247H88.8078V233.464ZM88.6478 228.632C88.6478 228.077 88.8611 227.619 89.2878 227.256C89.7358 226.893 90.2158 226.712 90.7278 226.712C91.2398 226.712 91.6984 226.893 92.1038 227.256C92.5304 227.619 92.7438 228.077 92.7438 228.632C92.7438 229.187 92.5304 229.645 92.1038 230.008C91.6984 230.349 91.2398 230.52 90.7278 230.52C90.2158 230.52 89.7358 230.339 89.2878 229.976C88.8611 229.613 88.6478 229.165 88.6478 228.632ZM97.7878 253.528L95.7078 251.288C96.3051 250.797 96.7744 250.189 97.1158 249.464C97.4784 248.739 97.6598 247.875 97.6598 246.872V233.464H101.244V247.032C101.244 248.611 100.977 249.923 100.444 250.968C99.9104 252.035 99.0251 252.888 97.7878 253.528ZM97.4358 228.632C97.4358 228.077 97.6491 227.619 98.0758 227.256C98.5238 226.893 99.0038 226.712 99.5158 226.712C100.028 226.712 100.486 226.893 100.892 227.256C101.318 227.619 101.532 228.077 101.532 228.632C101.532 229.187 101.318 229.645 100.892 230.008C100.486 230.349 100.028 230.52 99.5158 230.52C99.0038 230.52 98.5238 230.339 98.0758 229.976C97.6491 229.613 97.4358 229.165 97.4358 228.632ZM111.785 247.352C110.505 247.352 109.342 247.085 108.297 246.552C107.273 246.019 106.462 245.229 105.865 244.184C105.268 243.117 104.969 241.805 104.969 240.248C104.969 238.712 105.278 237.4 105.897 236.312C106.537 235.203 107.369 234.349 108.393 233.752C109.438 233.155 110.569 232.856 111.785 232.856C113.086 232.856 114.132 233.112 114.921 233.624C115.732 234.136 116.361 234.744 116.809 235.448L116.617 235.96L116.969 233.464H120.265V247H116.681V243.704L117.033 244.568C116.948 244.696 116.777 244.909 116.521 245.208C116.265 245.485 115.913 245.795 115.465 246.136C115.017 246.477 114.484 246.765 113.865 247C113.268 247.235 112.574 247.352 111.785 247.352ZM112.777 244.408C113.417 244.408 113.993 244.291 114.505 244.056C115.038 243.821 115.486 243.491 115.849 243.064C116.233 242.637 116.51 242.125 116.681 241.528V238.584C116.51 238.029 116.233 237.549 115.849 237.144C115.465 236.717 114.996 236.387 114.441 236.152C113.908 235.917 113.31 235.8 112.649 235.8C111.924 235.8 111.252 235.981 110.633 236.344C110.014 236.707 109.513 237.208 109.129 237.848C108.766 238.488 108.585 239.224 108.585 240.056C108.585 240.867 108.777 241.603 109.161 242.264C109.545 242.925 110.057 243.448 110.697 243.832C111.337 244.216 112.03 244.408 112.777 244.408ZM129.566 247.576C128.329 247.576 127.305 247.203 126.494 246.456C125.683 245.688 125.257 244.707 125.214 243.512V233.464H128.798V242.232C128.841 242.893 129.033 243.437 129.374 243.864C129.715 244.291 130.259 244.504 131.006 244.504C131.71 244.504 132.339 244.291 132.894 243.864C133.449 243.416 133.875 242.808 134.174 242.04C134.494 241.272 134.654 240.408 134.654 239.448V233.464H138.238V247H135.006L134.718 244.024L134.814 244.504C134.537 245.08 134.142 245.613 133.63 246.104C133.118 246.573 132.51 246.936 131.806 247.192C131.123 247.448 130.377 247.576 129.566 247.576ZM156.143 228.44C155.311 228.013 154.425 227.651 153.487 227.352C152.548 227.032 151.652 226.872 150.799 226.872C149.647 226.872 148.729 227.128 148.047 227.64C147.385 228.152 147.055 228.856 147.055 229.752C147.055 230.392 147.289 230.957 147.759 231.448C148.228 231.917 148.825 232.333 149.551 232.696C150.276 233.037 151.044 233.368 151.855 233.688C152.559 233.944 153.252 234.253 153.935 234.616C154.639 234.957 155.268 235.384 155.823 235.896C156.377 236.408 156.815 237.048 157.135 237.816C157.476 238.563 157.647 239.491 157.647 240.6C157.647 241.816 157.337 242.936 156.719 243.96C156.1 244.963 155.215 245.763 154.063 246.36C152.911 246.957 151.503 247.256 149.839 247.256C148.879 247.256 147.929 247.149 146.991 246.936C146.073 246.723 145.199 246.435 144.367 246.072C143.535 245.688 142.767 245.261 142.063 244.792L143.727 241.88C144.239 242.264 144.825 242.616 145.487 242.936C146.148 243.256 146.831 243.512 147.535 243.704C148.239 243.875 148.9 243.96 149.519 243.96C150.18 243.96 150.831 243.853 151.471 243.64C152.132 243.427 152.676 243.075 153.103 242.584C153.551 242.093 153.775 241.443 153.775 240.632C153.775 239.971 153.583 239.405 153.199 238.936C152.815 238.467 152.313 238.061 151.695 237.72C151.097 237.357 150.436 237.037 149.711 236.76C148.985 236.483 148.239 236.173 147.471 235.832C146.724 235.491 146.031 235.075 145.391 234.584C144.751 234.072 144.228 233.453 143.823 232.728C143.417 232.003 143.215 231.107 143.215 230.04C143.215 228.76 143.513 227.651 144.111 226.712C144.708 225.773 145.529 225.027 146.575 224.472C147.641 223.917 148.868 223.619 150.255 223.576C151.897 223.576 153.295 223.779 154.447 224.184C155.62 224.568 156.655 225.037 157.551 225.592L156.143 228.44ZM167.504 247.352C166.224 247.352 165.061 247.085 164.016 246.552C162.992 246.019 162.181 245.229 161.584 244.184C160.986 243.117 160.688 241.805 160.688 240.248C160.688 238.712 160.997 237.4 161.616 236.312C162.256 235.203 163.088 234.349 164.112 233.752C165.157 233.155 166.288 232.856 167.504 232.856C168.805 232.856 169.85 233.112 170.64 233.624C171.45 234.136 172.08 234.744 172.528 235.448L172.336 235.96L172.688 233.464H175.984V247H172.4V243.704L172.752 244.568C172.666 244.696 172.496 244.909 172.24 245.208C171.984 245.485 171.632 245.795 171.184 246.136C170.736 246.477 170.202 246.765 169.584 247C168.986 247.235 168.293 247.352 167.504 247.352ZM168.496 244.408C169.136 244.408 169.712 244.291 170.224 244.056C170.757 243.821 171.205 243.491 171.568 243.064C171.952 242.637 172.229 242.125 172.4 241.528V238.584C172.229 238.029 171.952 237.549 171.568 237.144C171.184 236.717 170.714 236.387 170.16 236.152C169.626 235.917 169.029 235.8 168.368 235.8C167.642 235.8 166.97 235.981 166.352 236.344C165.733 236.707 165.232 237.208 164.848 237.848C164.485 238.488 164.304 239.224 164.304 240.056C164.304 240.867 164.496 241.603 164.88 242.264C165.264 242.925 165.776 243.448 166.416 243.832C167.056 244.216 167.749 244.408 168.496 244.408ZM184.165 233.464L184.485 236.376L184.357 235.992C184.826 235.053 185.519 234.307 186.437 233.752C187.375 233.176 188.485 232.888 189.765 232.888C191.045 232.888 192.101 233.261 192.933 234.008C193.765 234.755 194.191 235.736 194.213 236.952V247H190.629V238.232C190.607 237.549 190.415 237.005 190.053 236.6C189.69 236.173 189.114 235.949 188.325 235.928C187.599 235.928 186.949 236.152 186.373 236.6C185.797 237.027 185.338 237.624 184.997 238.392C184.677 239.139 184.517 240.003 184.517 240.984V247H180.933V233.464H184.165ZM200.432 227.512H204.048V233.464H207.568V236.28H204.048V247H200.432V236.28H198.128V233.464H200.432V227.512ZM216.785 247.352C215.505 247.352 214.342 247.085 213.297 246.552C212.273 246.019 211.462 245.229 210.865 244.184C210.268 243.117 209.969 241.805 209.969 240.248C209.969 238.712 210.278 237.4 210.897 236.312C211.537 235.203 212.369 234.349 213.393 233.752C214.438 233.155 215.569 232.856 216.785 232.856C218.086 232.856 219.132 233.112 219.921 233.624C220.732 234.136 221.361 234.744 221.809 235.448L221.617 235.96L221.969 233.464H225.265V247H221.681V243.704L222.033 244.568C221.948 244.696 221.777 244.909 221.521 245.208C221.265 245.485 220.913 245.795 220.465 246.136C220.017 246.477 219.484 246.765 218.865 247C218.268 247.235 217.574 247.352 216.785 247.352ZM217.777 244.408C218.417 244.408 218.993 244.291 219.505 244.056C220.038 243.821 220.486 243.491 220.849 243.064C221.233 242.637 221.51 242.125 221.681 241.528V238.584C221.51 238.029 221.233 237.549 220.849 237.144C220.465 236.717 219.996 236.387 219.441 236.152C218.908 235.917 218.31 235.8 217.649 235.8C216.924 235.8 216.252 235.981 215.633 236.344C215.014 236.707 214.513 237.208 214.129 237.848C213.766 238.488 213.585 239.224 213.585 240.056C213.585 240.867 213.777 241.603 214.161 242.264C214.545 242.925 215.057 243.448 215.697 243.832C216.337 244.216 217.03 244.408 217.777 244.408ZM233.446 233.464L233.766 237.304L233.638 236.76C234.022 235.949 234.545 235.256 235.206 234.68C235.889 234.083 236.582 233.635 237.286 233.336C237.99 233.016 238.566 232.856 239.014 232.856L238.854 236.44C237.83 236.355 236.934 236.547 236.166 237.016C235.419 237.464 234.833 238.061 234.406 238.808C234.001 239.555 233.798 240.344 233.798 241.176V247H230.214V233.464H233.446ZM248.004 247.352C246.724 247.352 245.561 247.085 244.516 246.552C243.492 246.019 242.681 245.229 242.084 244.184C241.486 243.117 241.188 241.805 241.188 240.248C241.188 238.712 241.497 237.4 242.116 236.312C242.756 235.203 243.588 234.349 244.612 233.752C245.657 233.155 246.788 232.856 248.004 232.856C249.305 232.856 250.35 233.112 251.14 233.624C251.95 234.136 252.58 234.744 253.028 235.448L252.836 235.96L253.188 233.464H256.484V247H252.9V243.704L253.252 244.568C253.166 244.696 252.996 244.909 252.74 245.208C252.484 245.485 252.132 245.795 251.684 246.136C251.236 246.477 250.702 246.765 250.084 247C249.486 247.235 248.793 247.352 248.004 247.352ZM248.996 244.408C249.636 244.408 250.212 244.291 250.724 244.056C251.257 243.821 251.705 243.491 252.068 243.064C252.452 242.637 252.729 242.125 252.9 241.528V238.584C252.729 238.029 252.452 237.549 252.068 237.144C251.684 236.717 251.214 236.387 250.66 236.152C250.126 235.917 249.529 235.8 248.868 235.8C248.142 235.8 247.47 235.981 246.852 236.344C246.233 236.707 245.732 237.208 245.348 237.848C244.985 238.488 244.804 239.224 244.804 240.056C244.804 240.867 244.996 241.603 245.38 242.264C245.764 242.925 246.276 243.448 246.916 243.832C247.556 244.216 248.249 244.408 248.996 244.408Z" fill="#3A4E48"/>
</svg>
